<svg xmlns="http://www.w3.org/2000/svg" fill="none" viewBox="0 0 24 24" width="24" height="24"><g clip-path="url(#a)"><path fill="#343C47" d="M10 10.5h1.5v3H10v-3ZM19 3H5c-1.1 0-2 .9-2 2v14c0 1.1.9 2 2 2h14c1.1 0 2-.9 2-2V5c0-1.1-.9-2-2-2ZM7.5 15H6v-4.5H4.5V9h3v6Zm5.5-1c0 .55-.45 1-1 1H9.5c-.55 0-1-.45-1-1v-4c0-.55.45-1 1-1H12c.55 0 1 .45 1 1v4Zm6.5 1h-1.75L16 12.75V15h-1.5V9H16v2.25L17.75 9h1.75l-2.25 3 2.25 3Z"/></g><defs><clipPath id="a"><path fill="#fff" d="M0 0h24v24H0z"/></clipPath></defs></svg>