<svg xmlns="http://www.w3.org/2000/svg" fill="none" viewBox="0 0 24 24" width="24" height="24"><g fill="#343C47" clip-path="url(#a)"><path d="M16.5 9c-.42 0-.83.04-1.24.11L1.01 3 1 10l9 2-9 2 .01 7 8.07-3.46C9.59 21.19 12.71 24 16.5 24c4.14 0 7.5-3.36 7.5-7.5 0-4.14-3.36-7.5-7.5-7.5Zm0 13a5.51 5.51 0 0 1-5.5-5.5c0-3.03 2.47-5.5 5.5-5.5s5.5 2.47 5.5 5.5-2.47 5.5-5.5 5.5Z"/><path d="m18.27 14.03-1.77 1.76-1.77-1.76-.7.7 1.76 1.77-1.76 1.77.7.7 1.77-1.76 1.77 1.76.7-.7-1.76-1.77 1.76-1.77-.7-.7Z"/></g><defs><clipPath id="a"><path fill="#fff" d="M0 0h24v24H0z"/></clipPath></defs></svg>