<svg xmlns="http://www.w3.org/2000/svg" fill="none" viewBox="0 0 24 24" width="24" height="24"><g fill="#343C47" clip-path="url(#a)"><path d="M12 16c3.87 0 7-3.13 7-7s-3.13-7-7-7-7 3.13-7 7 3.13 7 7 7Zm0-12c2.76 0 5 2.24 5 5s-2.24 5-5 5-5-2.24-5-5 2.24-5 5-5Z"/><path d="M10 9a1 1 0 1 0 0-2 1 1 0 0 0 0 2Zm4 0a1 1 0 1 0 0-2 1 1 0 0 0 0 2Zm-2-2a1 1 0 1 0 0-2 1 1 0 0 0 0 2ZM7 19h2c1.1 0 2 .9 2 2v1h2v-1c0-1.1.9-2 2-2h2v-2H7v2Z"/></g><defs><clipPath id="a"><path fill="#fff" d="M0 0h24v24H0z"/></clipPath></defs></svg>