<svg xmlns="http://www.w3.org/2000/svg" fill="none" viewBox="0 0 24 24" width="24" height="24"><g clip-path="url(#a)"><path fill="#343C47" d="M17 1H7c-1.1 0-2 .9-2 2v18c0 1.1.9 2 2 2h10c1.1 0 2-.9 2-2V3c0-1.1-.9-2-2-2ZM7 18V6h10v12H7Zm9-7V9.14C16 8.51 15.55 8 15 8H9c-.55 0-1 .51-1 1.14v1.96c.55 0 1 .45 1 1s-.45 1-1 1v1.76c0 .63.45 1.14 1 1.14h6c.55 0 1-.51 1-1.14V13c-.55 0-1-.45-1-1s.45-1 1-1Zm-3.5 3.5h-1v-1h1v1Zm0-2h-1v-1h1v1Zm0-2h-1v-1h1v1Z"/></g><defs><clipPath id="a"><path fill="#fff" d="M0 0h24v24H0z"/></clipPath></defs></svg>