<svg xmlns="http://www.w3.org/2000/svg" fill="none" viewBox="0 0 24 24" width="24" height="24"><g fill="#343C47" clip-path="url(#a)"><path d="M9.41 6.58 12 4l8 8-2.58 2.59L18.83 16l2.58-2.59c.78-.78.78-2.05 0-2.83l-8-8c-.78-.78-2.05-.78-2.83 0L8 5.17l1.41 1.41Zm-6.6-3.77L1.39 4.22 5.17 8l-2.58 2.59c-.78.78-.78 2.05 0 2.83l8 8c.78.78 2.05.78 2.83 0L16 18.83l3.78 3.78 1.41-1.41L2.81 2.81ZM12 20l-8-8 2.58-2.59L8.17 11H7v2h3.17l1.5 1.5-1.08 1.09L12 17l1.09-1.09 1.5 1.5L12 20Z"/><path d="m12.005 6.998-1.089 1.09 5 4.999 1.089-1.09-5-4.999Z"/></g><defs><clipPath id="a"><path fill="#fff" d="M0 0h24v24H0z"/></clipPath></defs></svg>