<svg xmlns="http://www.w3.org/2000/svg" fill="none" viewBox="0 0 24 24" width="24" height="24"><g clip-path="url(#a)"><path fill="#343C47" d="M19 3H5a2 2 0 0 0-2 2v14a2 2 0 0 0 2 2h14c1.1 0 2-.9 2-2V5c0-1.1-.9-2-2-2Zm-6 6h4c.55 0 1 .45 1 1v4c0 .55-.45 1-1 1h-4V9Zm-3.5 4.5v-1H7c-.55 0-1-.45-1-1V10c0-.55.45-1 1-1h3c.55 0 1 .45 1 1v1H9.5v-.5h-2v1H10c.55 0 1 .45 1 1V14c0 .55-.45 1-1 1H7c-.55 0-1-.45-1-1v-1h1.5v.5h2Zm5 0h2v-3h-2v3Z"/></g><defs><clipPath id="a"><path fill="#fff" d="M0 0h24v24H0z"/></clipPath></defs></svg>