<svg xmlns="http://www.w3.org/2000/svg" fill="none" viewBox="0 0 24 24" width="24" height="24"><g fill="#343C47" clip-path="url(#a)"><path d="M20 14a2 2 0 1 0 0-4 2 2 0 0 0 0 4ZM4 14a2 2 0 1 0 0-4 2 2 0 0 0 0 4Zm8 8a2 2 0 1 0 0-4 2 2 0 0 0 0 4ZM10.05 8.59 6.03 4.55h-.01l-.31-.32-1.42 1.41 4.02 4.05.01-.01.31.32 1.42-1.41Zm3.893.027 4.405-4.392L19.76 5.64l-4.405 4.393-1.412-1.416ZM10.01 15.36l-1.42-1.41-4.03 4.01-.32.33 1.41 1.41 4.03-4.02.33-.32Zm9.75 2.94-3.99-4.01-.36-.35L14 15.35l3.99 4.01.35.35 1.42-1.41ZM12 6a2 2 0 1 0 0-4 2 2 0 0 0 0 4Z"/></g><defs><clipPath id="a"><path fill="#fff" d="M0 0h24v24H0z"/></clipPath></defs></svg>