<svg xmlns="http://www.w3.org/2000/svg" fill="none" viewBox="0 0 24 24" width="24" height="24"><g fill="#343C47" clip-path="url(#a)"><path d="M2 16.5C2 19.54 4.46 22 7.5 22s5.5-2.46 5.5-5.5V10H2v6.5Zm5.5 2C6.12 18.5 5 17.83 5 17h5c0 .83-1.12 1.5-2.5 1.5ZM10 13c.55 0 1 .45 1 1s-.45 1-1 1-1-.45-1-1 .45-1 1-1Zm-5 0c.55 0 1 .45 1 1s-.45 1-1 1-1-.45-1-1 .45-1 1-1Z"/><path d="M11 3v6h3v2.5c0-.83 1.12-1.5 2.5-1.5s2.5.67 2.5 1.5h-5v2.89c.75.38 1.6.61 2.5.61 3.04 0 5.5-2.46 5.5-5.5V3H11Zm3 5.08c-.55 0-1-.45-1-1s.45-1 1-1 1 .45 1 1c0 .56-.45 1-1 1Zm5 0c-.55 0-1-.45-1-1s.45-1 1-1 1 .45 1 1c0 .56-.45 1-1 1Z"/></g><defs><clipPath id="a"><path fill="#fff" d="M0 0h24v24H0z"/></clipPath></defs></svg>