<svg xmlns="http://www.w3.org/2000/svg" fill="none" viewBox="0 0 24 24" width="24" height="24"><g clip-path="url(#a)"><path fill="#343C47" d="M14 4h2v2h-2V4Zm-1 3h2v2h-2V7Zm-2-3h2v2h-2V4Zm7 5h-2V7h2v2Zm1-3h-2V4h2v2Zm2 3h-2V7h2v2Zm1-3h-2V4h2v2Zm-7.38 8.38L12.1 16.9c-2.5-1.43-4.57-3.5-6-6l2.52-2.52c.24-.24.34-.58.28-.9L8.16 3.8c-.09-.46-.5-.8-.98-.8H3.03c-.56 0-1.03.47-1 1.03.17 2.89 1.02 5.6 2.4 7.97 1.58 2.73 3.85 4.99 6.57 6.57 2.37 1.37 5.08 2.23 7.97 2.4.56.03 1.03-.44 1.03-1v-4.15c0-.48-.34-.89-.8-.98l-3.67-.73a.99.99 0 0 0-.91.27ZM14 10h2v2h-2v-2Zm-3 0h2v2h-2v-2Zm8 2h-2v-2h2v2Zm3 0h-2v-2h2v2Z"/></g><defs><clipPath id="a"><path fill="#fff" d="M0 0h24v24H0z"/></clipPath></defs></svg>