<svg width="47" height="47" viewBox="0 0 47 47" fill="none" xmlns="http://www.w3.org/2000/svg">
<path d="M0.5 23.8594C0.5 36.5619 10.7975 46.8594 23.5 46.8594C36.2025 46.8594 46.5 36.5619 46.5 23.8594C46.5 11.1568 36.2025 0.859375 23.5 0.859375C10.7975 0.859375 0.5 11.1568 0.5 23.8594Z" fill="#1DA1F2"/>
<path d="M35 16.6719C34.1375 17.1031 33.275 17.2469 32.2688 17.3906C33.275 16.8156 33.9937 15.9531 34.2812 14.8031C33.4188 15.3781 32.4125 15.6656 31.2625 15.9531C30.4 15.0906 29.1063 14.5156 27.8125 14.5156C24.7937 14.5156 22.4938 17.3906 23.2125 20.2656C19.3313 20.1219 15.8813 18.2531 13.4375 15.3781C12.1438 17.5344 12.8625 20.2656 14.875 21.7031C14.1562 21.7031 13.4375 21.4156 12.7188 21.1281C12.7188 23.2844 14.3 25.2969 16.4563 25.8719C15.7375 26.0156 15.0188 26.1594 14.3 26.0156C14.875 27.8844 16.6 29.3219 18.7562 29.3219C17.0312 30.6156 14.4438 31.3344 12 31.0469C14.1562 32.3406 16.6 33.2031 19.1875 33.2031C27.9563 33.2031 32.8437 25.8719 32.5562 19.1156C33.5625 18.5406 34.425 17.6781 35 16.6719Z" fill="white"/>
</svg>
