<svg xmlns="http://www.w3.org/2000/svg" fill="none" viewBox="0 0 24 24" width="24" height="24"><g clip-path="url(#a)"><path fill="#343C47" d="M3 5H1v16c0 1.1.9 2 2 2h16v-2H3V5Zm18-4H7c-1.1 0-2 .9-2 2v14c0 1.1.9 2 2 2h14c1.1 0 2-.9 2-2V3c0-1.1-.9-2-2-2Zm0 16H7V3h14v14Zm-8-2h2a2 2 0 0 0 2-2v-1.5c0-.83-.67-1.5-1.5-1.5.83 0 1.5-.67 1.5-1.5V7a2 2 0 0 0-2-2h-2a2 2 0 0 0-2 2v1.5c0 .83.67 1.5 1.5 1.5-.83 0-1.5.67-1.5 1.5V13a2 2 0 0 0 2 2Zm0-8h2v2h-2V7Zm0 4h2v2h-2v-2Z"/></g><defs><clipPath id="a"><path fill="#fff" d="M0 0h24v24H0z"/></clipPath></defs></svg>