<svg xmlns="http://www.w3.org/2000/svg" fill="none" viewBox="0 0 24 24" width="24" height="24"><g clip-path="url(#a)"><path fill="#343C47" d="M21.09 12.286v7.428a1.891 1.891 0 0 1-.532 1.314 1.804 1.804 0 0 1-1.285.543H4.727a1.786 1.786 0 0 1-1.285-.544 1.861 1.861 0 0 1-.533-1.313v-7.428a.9.9 0 0 1-.643-.272.939.939 0 0 1-.266-.657V8.571c0-.492.192-.964.533-1.313a1.8 1.8 0 0 1 1.285-.544H6.7a2.84 2.84 0 0 1 .644-2.898A2.699 2.699 0 0 1 9.273 3c.909 0 1.709.464 2.209 1.151v-.009l.518.715.518-.715v.01c.5-.688 1.3-1.152 2.21-1.152.723 0 1.416.293 1.928.816a2.84 2.84 0 0 1 .644 2.898h2.882a1.8 1.8 0 0 1 1.286.544c.34.349.532.82.532 1.313v2.786a.939.939 0 0 1-.266.657.9.9 0 0 1-.643.272ZM4.728 19.714h6.364v-7.428H4.727v7.428Zm14.546 0v-7.428H12.91v7.428h6.364Zm-10-14.857a.9.9 0 0 0-.643.272.939.939 0 0 0 0 1.313.9.9 0 0 0 1.286 0 .939.939 0 0 0 0-1.313.9.9 0 0 0-.643-.272Zm5.454 0a.9.9 0 0 0-.643.272.94.94 0 0 0 0 1.313.9.9 0 0 0 1.286 0 .939.939 0 0 0 0-1.313.9.9 0 0 0-.643-.272ZM3.818 8.571v1.858h7.273V8.57H3.818Zm9.091 0v1.858h7.273V8.57h-7.273Z"/></g><defs><clipPath id="a"><path fill="#fff" d="M0 0h24v24H0z"/></clipPath></defs></svg>