<svg xmlns="http://www.w3.org/2000/svg" fill="none" viewBox="0 0 24 24" width="24" height="24"><g fill="#343C47" clip-path="url(#a)"><path d="M6.5 11c-.17 0-.34.01-.5.03V6.87C6 5.84 6.84 5 7.87 5h13.26C22.16 5 23 5.84 23 6.87v10.26c0 1.03-.84 1.87-1.87 1.87H11.4c.38-.75.6-1.6.6-2.5 0-3.04-2.46-5.5-5.5-5.5Zm8.1 2L21 9.19V7h-.23l-6.18 3.68L8.26 7H8v2.16L14.6 13Z"/><path d="m6 13 1.41 1.41L5.83 16H10v2H5.83l1.58 1.59L6 21l-4-4 4-4Z"/></g><defs><clipPath id="a"><path fill="#fff" d="M0 0h24v24H0z"/></clipPath></defs></svg>