<svg xmlns="http://www.w3.org/2000/svg" fill="none" viewBox="0 0 24 24" width="24" height="24"><g clip-path="url(#a)"><path fill="#343C47" d="M20 5h-3.2L15 3H9L7.2 5H4c-1.1 0-2 .9-2 2v12c0 1.1.9 2 2 2h16c1.1 0 2-.9 2-2V7c0-1.1-.9-2-2-2Zm0 14h-8v-1c-2.8 0-5-2.2-5-5s2.2-5 5-5V7h8v12Zm-3-6c0-2.8-2.2-5-5-5v1.8c1.8 0 3.2 1.4 3.2 3.2 0 1.8-1.4 3.2-3.2 3.2V18c2.8 0 5-2.2 5-5Zm-8.2 0c0 1.8 1.4 3.2 3.2 3.2V9.8c-1.8 0-3.2 1.4-3.2 3.2Z"/></g><defs><clipPath id="a"><path fill="#fff" d="M0 0h24v24H0z"/></clipPath></defs></svg>