<svg xmlns="http://www.w3.org/2000/svg" fill="none" viewBox="0 0 24 24" width="24" height="24"><g fill="#343C47" clip-path="url(#a)"><path d="M8.55 12Zm10.43-1.61Zm-3.49-.76c-.18-2.79-1.31-5.51-3.43-7.63a12.188 12.188 0 0 0-3.55 7.63c1.28.68 2.46 1.56 3.49 2.63 1.03-1.06 2.21-1.94 3.49-2.63Zm-6.5 2.65c-.14-.1-.3-.19-.45-.29.15.11.31.19.45.29Zm6.42-.25c-.13.09-.27.16-.4.26.13-.1.27-.17.4-.26ZM12 15.45C9.85 12.17 6.18 10 2 10c0 5.32 3.36 9.82 8.03 11.49.63.23 1.29.4 1.97.51.68-.12 1.33-.29 1.97-.51C18.64 19.82 22 15.32 22 10c-4.18 0-7.85 2.17-10 5.45Z"/></g><defs><clipPath id="a"><path fill="#fff" d="M0 0h24v24H0z"/></clipPath></defs></svg>