<svg width="92" height="25" viewBox="0 0 92 25" fill="none" xmlns="http://www.w3.org/2000/svg">
<path d="M19.9751 6.33383C20.2787 4.3943 19.9734 3.07502 18.9249 1.88046C17.7697 0.564465 15.6825 0 13.0144 0H5.26618C4.72141 0 4.25539 0.397095 4.17171 0.935306L0.944085 21.3955C0.88009 21.7992 1.19186 22.1635 1.60044 22.1635H6.38362L6.05381 24.2572C5.99802 24.61 6.2704 24.93 6.62812 24.93H10.6598C11.1373 24.93 11.5426 24.5821 11.6181 24.1112L11.6574 23.9061L12.4172 19.0901L12.4664 18.8243C12.5402 18.3533 12.9472 18.0055 13.4247 18.0055H14.0285C17.9338 18.0055 20.9924 16.4187 21.8867 11.8292C22.2608 9.91096 22.0672 8.3111 21.0794 7.18545C20.7808 6.84578 20.4083 6.56355 19.9751 6.33383Z" fill="#009CDE"/>
<path d="M19.9751 6.33382C20.2787 4.3943 19.9734 3.07502 18.9249 1.88046C17.7697 0.564465 15.6825 0 13.0144 0H5.26618C4.72141 0 4.25539 0.397095 4.17171 0.935306L0.944085 21.3955C0.88009 21.7992 1.19186 22.1635 1.60044 22.1635H6.38363L7.58475 14.5448L7.54701 14.7844C7.63234 14.2462 8.09179 13.8491 8.6382 13.8491H10.9108C15.3757 13.8491 18.8724 12.0359 19.893 6.78835C19.9226 6.63247 19.9488 6.48314 19.9718 6.33382" fill="#012169"/>
<path d="M8.87613 6.36008C8.927 6.03518 9.13539 5.771 9.41598 5.63645C9.54397 5.57573 9.68509 5.54128 9.83441 5.54128H15.9073C16.626 5.54128 17.2972 5.58886 17.9109 5.68731C18.0864 5.71521 18.2571 5.74803 18.4228 5.78413C18.5885 5.82023 18.7493 5.86125 18.9052 5.90719C18.9824 5.93017 19.0595 5.95314 19.135 5.97939C19.4369 6.07949 19.7158 6.19763 19.9751 6.33382C20.2787 4.3943 19.9734 3.07502 18.9249 1.88046C17.7697 0.564465 15.6825 0 13.0144 0H5.26618C4.72141 0 4.25539 0.397095 4.17171 0.935306L0.944085 21.3955C0.88009 21.7992 1.19186 22.1635 1.60044 22.1635H6.38363L7.58475 14.5448L8.87613 6.36008Z" fill="#003087"/>
<g clip-path="url(#clip0_3991_162600)">
<path d="M34.5813 5.37335H29.6075C29.2672 5.37335 28.9777 5.62062 28.9246 5.95662L26.913 18.7108C26.873 18.9624 27.0679 19.1894 27.3231 19.1894H29.6977C30.0381 19.1894 30.3275 18.9421 30.3806 18.6054L30.9231 15.1654C30.9755 14.8286 31.2657 14.5814 31.6053 14.5814H33.1799C36.4562 14.5814 38.3471 12.9959 38.841 9.85408C39.0635 8.47953 38.8504 7.39953 38.2068 6.64317C37.4999 5.81262 36.2461 5.37335 34.5813 5.37335ZM35.1551 10.0315C34.8831 11.8163 33.5195 11.8163 32.201 11.8163H31.4504L31.977 8.48317C32.0082 8.28172 32.1828 8.13335 32.3864 8.13335H32.7304C33.6286 8.13335 34.4759 8.13335 34.9137 8.64535C35.1748 8.95081 35.2548 9.40462 35.1551 10.0315Z" fill="#253B80"/>
<path d="M49.449 9.97409H47.0671C46.8642 9.97409 46.689 10.1225 46.6577 10.3239L46.5522 10.9901L46.3857 10.7486C45.8701 10.0003 44.7202 9.75009 43.5726 9.75009C40.9406 9.75009 38.6926 11.7435 38.2548 14.5399C38.0271 15.9348 38.3508 17.2686 39.1421 18.1988C39.8679 19.0541 40.9064 19.4105 42.1421 19.4105C44.2628 19.4105 45.4388 18.0468 45.4388 18.0468L45.3326 18.7086C45.2926 18.9617 45.4875 19.1886 45.7413 19.1886H47.8868C48.2279 19.1886 48.5159 18.9414 48.5697 18.6046L49.857 10.4526C49.8977 10.2017 49.7035 9.97409 49.449 9.97409ZM46.129 14.6097C45.8991 15.9705 44.8191 16.8839 43.4417 16.8839C42.7501 16.8839 42.1973 16.6621 41.8424 16.2417C41.4904 15.8243 41.3566 15.2301 41.4686 14.5683C41.6831 13.2192 42.7813 12.2759 44.1377 12.2759C44.8141 12.2759 45.3639 12.5006 45.7261 12.9246C46.089 13.353 46.233 13.9508 46.129 14.6097Z" fill="#253B80"/>
<path d="M62.134 9.97409H59.7406C59.5122 9.97409 59.2977 10.0875 59.1682 10.2774L55.8671 15.1399L54.4679 10.4672C54.3799 10.1748 54.11 9.97409 53.8046 9.97409H51.4526C51.1668 9.97409 50.9682 10.2534 51.0591 10.5225L53.6955 18.2592L51.217 21.7581C51.022 22.0337 51.2184 22.4126 51.5551 22.4126H53.9457C54.1726 22.4126 54.385 22.3021 54.5137 22.1159L62.4744 10.625C62.665 10.3501 62.4693 9.97409 62.134 9.97409Z" fill="#253B80"/>
<path d="M70.0584 5.37335H65.0839C64.7442 5.37335 64.4548 5.62062 64.4017 5.95662L62.39 18.7108C62.35 18.9624 62.545 19.1894 62.7988 19.1894H65.3515C65.5886 19.1894 65.7915 19.0163 65.8286 18.7806L66.3995 15.1654C66.4519 14.8286 66.7421 14.5814 67.0817 14.5814H68.6555C71.9326 14.5814 73.8228 12.9959 74.3173 9.85408C74.5406 8.47953 74.326 7.39953 73.6824 6.64317C72.9762 5.81262 71.7231 5.37335 70.0584 5.37335ZM70.6322 10.0315C70.361 11.8163 68.9973 11.8163 67.6781 11.8163H66.9282L67.4555 8.48317C67.4868 8.28172 67.6599 8.13335 67.8642 8.13335H68.2082C69.1057 8.13335 69.9537 8.13335 70.3915 8.64535C70.6526 8.95081 70.7319 9.40462 70.6322 10.0315Z" fill="#179BD7"/>
<path d="M84.9253 9.97409H82.545C82.3406 9.97409 82.1668 10.1225 82.1362 10.3239L82.0308 10.9901L81.8635 10.7486C81.3479 10.0003 80.1988 9.75009 79.0511 9.75009C76.4191 9.75009 74.1719 11.7435 73.734 14.5399C73.5071 15.9348 73.8293 17.2686 74.6206 18.1988C75.3479 19.0541 76.385 19.4105 77.6206 19.4105C79.7413 19.4105 80.9173 18.0468 80.9173 18.0468L80.8111 18.7086C80.7711 18.9617 80.966 19.1886 81.2213 19.1886H83.366C83.7057 19.1886 83.9951 18.9414 84.0482 18.6046L85.3362 10.4526C85.3755 10.2017 85.1806 9.97409 84.9253 9.97409ZM81.6053 14.6097C81.377 15.9705 80.2955 16.8839 78.918 16.8839C78.2279 16.8839 77.6737 16.6621 77.3188 16.2417C76.9668 15.8243 76.8344 15.2301 76.945 14.5683C77.161 13.2192 78.2577 12.2759 79.614 12.2759C80.2904 12.2759 80.8402 12.5006 81.2024 12.9246C81.5668 13.353 81.7108 13.9508 81.6053 14.6097Z" fill="#179BD7"/>
<path d="M87.7333 5.72316L85.6919 18.7108C85.6519 18.9624 85.8468 19.1893 86.1006 19.1893H88.153C88.4941 19.1893 88.7835 18.9421 88.8359 18.6053L90.849 5.85189C90.889 5.60026 90.694 5.37262 90.4402 5.37262H88.1421C87.9391 5.37335 87.7646 5.52171 87.7333 5.72316Z" fill="#179BD7"/>
</g>
<defs>
<clipPath id="clip0_3991_162600">
<rect width="65" height="24" fill="white" transform="translate(26.0642 0.464996)"/>
</clipPath>
</defs>
</svg>
