<svg width="46" height="47" viewBox="0 0 46 47" fill="none" xmlns="http://www.w3.org/2000/svg">
<path d="M0 23.8594C0 36.5619 10.2975 46.8594 23 46.8594C35.7025 46.8594 46 36.5619 46 23.8594C46 11.1568 35.7025 0.859375 23 0.859375C10.2975 0.859375 0 11.1568 0 23.8594Z" fill="#1877F2"/>
<path d="M34.5 23.8594C34.5 17.5344 29.325 12.3594 23 12.3594C16.675 12.3594 11.5 17.5344 11.5 23.8594C11.5 29.6094 15.6687 34.3531 21.1312 35.2156V27.1656H18.2562V23.8594H21.1312V21.2719C21.1312 18.3969 22.8563 16.8156 25.4438 16.8156C26.7375 16.8156 28.0312 17.1031 28.0312 17.1031V19.9781H26.5938C25.1562 19.9781 24.725 20.8406 24.725 21.7031V23.8594H27.8875L27.3125 27.1656H24.5813V35.3594C30.3313 34.4969 34.5 29.6094 34.5 23.8594Z" fill="white"/>
</svg>
