<svg width="47" height="47" viewBox="0 0 47 47" fill="none" xmlns="http://www.w3.org/2000/svg">
<path d="M0.5 23.8594C0.5 36.5619 10.7975 46.8594 23.5 46.8594C36.2025 46.8594 46.5 36.5619 46.5 23.8594C46.5 11.1568 36.2025 0.859375 23.5 0.859375C10.7975 0.859375 0.5 11.1568 0.5 23.8594Z" fill="#F00073"/>
<path d="M23.4996 14.084C26.6621 14.084 27.0934 14.084 28.3871 14.084C29.5371 14.084 30.1121 14.3715 30.5434 14.5152C31.1184 14.8027 31.5496 14.9465 31.9809 15.3777C32.4121 15.809 32.6996 16.2402 32.8434 16.8152C32.9871 17.2465 33.1309 17.8215 33.2746 18.9715C33.2746 20.2652 33.2746 20.5527 33.2746 23.859C33.2746 27.1652 33.2746 27.4527 33.2746 28.7465C33.2746 29.8965 32.9871 30.4715 32.8434 30.9027C32.5559 31.4777 32.4121 31.909 31.9809 32.3402C31.5496 32.7715 31.1184 33.059 30.5434 33.2027C30.1121 33.3465 29.5371 33.4902 28.3871 33.634C27.0934 33.634 26.8059 33.634 23.4996 33.634C20.1934 33.634 19.9059 33.634 18.6121 33.634C17.4621 33.634 16.8871 33.3465 16.4559 33.2027C15.8809 32.9152 15.4496 32.7715 15.0184 32.3402C14.5871 31.909 14.2996 31.4777 14.1559 30.9027C14.0121 30.4715 13.8684 29.8965 13.7246 28.7465C13.7246 27.4527 13.7246 27.1652 13.7246 23.859C13.7246 20.5527 13.7246 20.2652 13.7246 18.9715C13.7246 17.8215 14.0121 17.2465 14.1559 16.8152C14.4434 16.2402 14.5871 15.809 15.0184 15.3777C15.4496 14.9465 15.8809 14.659 16.4559 14.5152C16.8871 14.3715 17.4621 14.2277 18.6121 14.084C19.9059 14.084 20.3371 14.084 23.4996 14.084ZM23.4996 11.9277C20.1934 11.9277 19.9059 11.9277 18.6121 11.9277C17.3184 11.9277 16.4559 12.2152 15.7371 12.5027C15.0184 12.7902 14.2996 13.2215 13.5809 13.9402C12.8621 14.659 12.5746 15.234 12.1434 16.0965C11.8559 16.8152 11.7121 17.6777 11.5684 18.9715C11.5684 20.2652 11.5684 20.6965 11.5684 23.859C11.5684 27.1652 11.5684 27.4527 11.5684 28.7465C11.5684 30.0402 11.8559 30.9027 12.1434 31.6215C12.4309 32.3402 12.8621 33.059 13.5809 33.7777C14.2996 34.4965 14.8746 34.784 15.7371 35.2152C16.4559 35.5027 17.3184 35.6465 18.6121 35.7902C19.9059 35.7902 20.3371 35.7902 23.4996 35.7902C26.6621 35.7902 27.0934 35.7902 28.3871 35.7902C29.6809 35.7902 30.5434 35.5027 31.2621 35.2152C31.9809 34.9277 32.6996 34.4965 33.4184 33.7777C34.1371 33.059 34.4246 32.484 34.8559 31.6215C35.1434 30.9027 35.2871 30.0402 35.4309 28.7465C35.4309 27.4527 35.4309 27.0215 35.4309 23.859C35.4309 20.6965 35.4309 20.2652 35.4309 18.9715C35.4309 17.6777 35.1434 16.8152 34.8559 16.0965C34.5684 15.3777 34.1371 14.659 33.4184 13.9402C32.6996 13.2215 32.1246 12.934 31.2621 12.5027C30.5434 12.2152 29.6809 12.0715 28.3871 11.9277C27.0934 11.9277 26.8059 11.9277 23.4996 11.9277Z" fill="white"/>
<path d="M23.4996 17.6777C20.0496 17.6777 17.3184 20.409 17.3184 23.859C17.3184 27.309 20.0496 30.0402 23.4996 30.0402C26.9496 30.0402 29.6809 27.309 29.6809 23.859C29.6809 20.409 26.9496 17.6777 23.4996 17.6777ZM23.4996 27.884C21.3434 27.884 19.4746 26.159 19.4746 23.859C19.4746 21.7027 21.1996 19.834 23.4996 19.834C25.6559 19.834 27.5246 21.559 27.5246 23.859C27.5246 26.0152 25.6559 27.884 23.4996 27.884Z" fill="white"/>
<path d="M29.8246 18.9715C30.6185 18.9715 31.2621 18.3279 31.2621 17.534C31.2621 16.7401 30.6185 16.0965 29.8246 16.0965C29.0307 16.0965 28.3871 16.7401 28.3871 17.534C28.3871 18.3279 29.0307 18.9715 29.8246 18.9715Z" fill="white"/>
</svg>
