<svg width="46" height="47" viewBox="0 0 46 47" fill="none" xmlns="http://www.w3.org/2000/svg">
<path d="M0 23.8594C0 11.1568 10.2975 0.859375 23 0.859375C35.7025 0.859375 46 11.1568 46 23.8594C46 36.5619 35.7025 46.8594 23 46.8594C10.2975 46.8594 0 36.5619 0 23.8594Z" fill="black"/>
<path d="M20.8414 21.4161V20.5207C20.5347 20.4797 20.2228 20.4541 19.9007 20.4541C16.0612 20.4491 12.9375 23.5754 12.9375 27.4232C12.9375 29.782 14.1134 31.8697 15.913 33.1336C14.7524 31.8902 14.0418 30.217 14.0418 28.3852C14.0418 24.5936 17.0786 21.5031 20.8414 21.4161Z" fill="#25F4EE"/>
<path d="M21.0103 31.5678C22.723 31.5678 24.1238 30.2017 24.1852 28.5029L24.1903 13.3213H26.9612C26.905 13.0092 26.8743 12.6869 26.8743 12.3594H23.0911L23.0859 27.5409C23.0246 29.2397 21.6238 30.6058 19.9111 30.6058C19.3794 30.6058 18.8784 30.4728 18.4336 30.2374C19.0062 31.0408 19.9469 31.5678 21.0103 31.5678Z" fill="#25F4EE"/>
<path d="M32.1406 18.4742V17.6299C31.0823 17.6299 30.1007 17.3178 29.2725 16.7754C30.0086 17.6197 31.0056 18.2337 32.1406 18.4742Z" fill="#25F4EE"/>
<path d="M29.2715 16.7751C28.4637 15.849 27.978 14.6414 27.978 13.3213H26.9658C27.2265 14.7642 28.0855 16.0025 29.2715 16.7751Z" fill="#FE2C55"/>
<path d="M19.9055 24.2356C18.152 24.2356 16.7256 25.6632 16.7256 27.4183C16.7256 28.6412 17.4209 29.7055 18.4331 30.2376C18.0548 29.7157 17.8299 29.0762 17.8299 28.3802C17.8299 26.6252 19.2563 25.1976 21.0099 25.1976C21.3371 25.1976 21.654 25.2538 21.9505 25.346V21.4777C21.6438 21.4367 21.3319 21.4111 21.0099 21.4111C20.9536 21.4111 20.9025 21.4163 20.8462 21.4163V24.384C20.5446 24.2919 20.2327 24.2356 19.9055 24.2356Z" fill="#FE2C55"/>
<path d="M32.1401 18.4736V21.4158C30.1769 21.4158 28.3569 20.7864 26.8742 19.7221V27.4229C26.8742 31.2656 23.7506 34.3971 19.9059 34.3971C18.4233 34.3971 17.0429 33.9264 15.9131 33.1333C17.1861 34.4994 19.001 35.3591 21.0103 35.3591C24.8497 35.3591 27.9786 32.2327 27.9786 28.3849V20.6841C29.4612 21.7484 31.2812 22.3777 33.2444 22.3777V18.5914C32.861 18.5914 32.4929 18.5504 32.1401 18.4736Z" fill="#FE2C55"/>
<path d="M26.8743 27.4232V19.7224C28.357 20.7867 30.177 21.416 32.1402 21.416V18.4739C31.0052 18.2334 30.0083 17.6194 29.2721 16.7751C28.086 16.0025 27.2322 14.7642 26.9612 13.3213H24.1903L24.1852 28.5028C24.1238 30.2015 22.723 31.5678 21.0103 31.5678C19.9469 31.5678 19.0113 31.0407 18.4285 30.2425C17.4162 29.7052 16.7209 28.6461 16.7209 27.4232C16.7209 25.6681 18.1473 24.2405 19.9009 24.2405C20.2281 24.2405 20.5451 24.2968 20.8416 24.3889V21.4211C17.0788 21.503 14.042 24.5935 14.042 28.3851C14.042 30.2169 14.7526 31.885 15.9132 33.1335C17.043 33.9266 18.4234 34.3974 19.906 34.3974C23.7455 34.3974 26.8743 31.2659 26.8743 27.4232Z" fill="white"/>
</svg>
