<svg width="60" height="24" viewBox="0 0 60 24" fill="none" xmlns="http://www.w3.org/2000/svg">
<path d="M11.5557 3.09426C10.8743 3.90479 9.78414 4.54435 8.694 4.45317C8.55796 3.35705 9.09138 2.19254 9.71612 1.4732C10.3975 0.639866 11.5897 0.0458976 12.5552 0.000305176C12.6685 1.14202 12.2258 2.26093 11.5557 3.09426ZM12.5438 4.66973C10.9656 4.57855 9.6141 5.57145 8.86467 5.57145C8.11523 5.57145 6.95707 4.71533 5.7076 4.73812C4.08404 4.76092 2.57321 5.68607 1.74442 7.15896C0.040877 10.1047 1.30169 14.4664 2.94792 16.8638C3.75403 18.0511 4.71948 19.353 5.991 19.3074C7.1945 19.2619 7.67187 18.5197 9.12539 18.5197C10.5789 18.5197 11.0103 19.3074 12.2825 19.2847C13.5999 19.2619 14.4287 18.0973 15.2348 16.91C16.1549 15.5625 16.5297 14.2499 16.5523 14.1815C16.5297 14.1587 14.0087 13.1879 13.986 10.2649C13.9633 7.82131 15.9729 6.65681 16.0643 6.58842C14.9288 4.89833 13.1572 4.71596 12.5438 4.67037M21.6623 1.35921V19.1593H24.41V13.0739H28.2139C31.6884 13.0739 34.13 10.6765 34.13 7.20518C34.13 3.73382 31.7337 1.35921 28.3046 1.35921H21.6617H21.6623ZM24.41 3.68823H27.5785C29.9628 3.68823 31.3256 4.96672 31.3256 7.21658C31.3256 9.46644 29.9628 10.7563 27.5671 10.7563H24.41V3.68823ZM39.1493 19.2961C40.8755 19.2961 42.4764 18.4171 43.2032 17.024H43.2599V19.1593H45.8035V10.2991C45.8035 7.73013 43.7593 6.07487 40.6142 6.07487C37.6958 6.07487 35.5382 7.75356 35.4588 10.0598H37.9345C38.1392 8.96366 39.1493 8.24431 40.5348 8.24431C42.2157 8.24431 43.1578 9.03205 43.1578 10.4821V11.4643L39.7287 11.6701C36.5376 11.8645 34.8121 13.1772 34.8121 15.4606C34.8121 17.744 36.595 19.2967 39.15 19.2967L39.1493 19.2961ZM39.8874 17.1836C38.4226 17.1836 37.4911 16.4757 37.4911 15.3909C37.4911 14.3062 38.3879 13.6211 40.1028 13.5185L43.1572 13.3241V14.329C43.1572 15.9963 41.749 17.1836 39.8868 17.1836H39.8874ZM49.1987 23.9997C51.8783 23.9997 53.1392 22.9719 54.2406 19.8552L59.0666 6.24521H56.2729L53.0365 16.7606H52.9798L49.7434 6.24521H46.8704L51.5263 19.2042L51.2763 19.992C50.8562 21.3281 50.1748 21.8416 48.96 21.8416C48.744 21.8416 48.3239 21.8188 48.1539 21.796V23.9313C48.3126 23.9769 48.994 23.9997 49.1987 23.9997Z" fill="black"/>
</svg>
