<svg width="60" height="28" viewBox="0 0 60 28" fill="none" xmlns="http://www.w3.org/2000/svg">
<g clip-path="url(#clip0_3910_90685)">
<path d="M28.3834 14.4784V21.313H26.1787V4.41016H31.911C33.3073 4.41016 34.6302 4.92459 35.659 5.87997C36.6879 6.76186 37.2023 8.0847 37.2023 9.48102C37.2023 10.8773 36.6879 12.1267 35.659 13.0821C34.6302 14.0375 33.3808 14.5519 31.911 14.5519L28.3834 14.4784ZM28.3834 6.4679V12.3472H32.058C32.8664 12.3472 33.6748 12.0532 34.1892 11.4653C35.3651 10.3629 35.3651 8.52564 34.2627 7.42328L34.1892 7.34979C33.6013 6.76186 32.8664 6.39441 32.058 6.4679H28.3834Z" fill="#5F6368"/>
<path d="M42.273 9.40625C43.8898 9.40625 45.1392 9.84719 46.0945 10.7291C47.0499 11.611 47.4909 12.7868 47.4909 14.2566V21.3118H45.4331V19.695H45.3596C44.4777 21.0178 43.2284 21.6792 41.7586 21.6792C40.5092 21.6792 39.4069 21.3118 38.525 20.5769C37.7166 19.8419 37.2021 18.8131 37.2021 17.7107C37.2021 16.5349 37.6431 15.5795 38.525 14.8446C39.4069 14.1097 40.6562 13.8157 42.126 13.8157C43.4489 13.8157 44.4777 14.0362 45.2861 14.5506V14.0362C45.2861 13.3013 44.9922 12.5664 44.4042 12.1254C43.8163 11.611 43.0814 11.317 42.273 11.317C41.0237 11.317 40.0683 11.8314 39.4069 12.8603L37.4961 11.6845C38.672 10.1412 40.2153 9.40625 42.273 9.40625ZM39.4804 17.7842C39.4804 18.3721 39.7743 18.8866 40.2153 19.1805C40.7297 19.548 41.3176 19.7685 41.9056 19.7685C42.7875 19.7685 43.6693 19.401 44.3308 18.7396C45.0657 18.0782 45.4331 17.2698 45.4331 16.3879C44.7717 15.8734 43.8163 15.5795 42.567 15.5795C41.6851 15.5795 40.9502 15.8 40.3623 16.2409C39.7743 16.6084 39.4804 17.1228 39.4804 17.7842Z" fill="#5F6368"/>
<path d="M59.3965 9.77344L52.1209 26.4559H49.9161L52.6353 20.6501L47.8584 9.84693H50.2101L53.6642 18.1514H53.7377L57.1182 9.84693H59.3965V9.77344Z" fill="#5F6368"/>
<path d="M19.638 13.0077C19.638 12.3463 19.5645 11.6849 19.491 11.0234H10.3047V14.7715H15.5225C15.3021 15.9473 14.6406 17.0497 13.6118 17.7111V20.1363H16.7719C18.6092 18.446 19.638 15.9473 19.638 13.0077Z" fill="#4285F4"/>
<path d="M10.3047 22.4885C12.9504 22.4885 15.1551 21.6066 16.7719 20.1368L13.6118 17.7116C12.7299 18.2995 11.6276 18.667 10.3047 18.667C7.80604 18.667 5.60132 16.9767 4.86641 14.625H1.63281V17.1237C3.3231 20.4308 6.63019 22.4885 10.3047 22.4885Z" fill="#34A853"/>
<path d="M4.8658 14.6256C4.42486 13.4498 4.42486 12.1269 4.8658 10.8776V8.37891H1.63221C0.23588 11.0981 0.23588 14.3317 1.63221 17.1243L4.8658 14.6256Z" fill="#FBBC04"/>
<path d="M10.3045 6.90751C11.7008 6.90751 13.0236 7.42194 14.0525 8.37732L16.8452 5.58467C15.0814 3.96788 12.7297 3.01249 10.378 3.08599C6.70343 3.08599 3.32285 5.14373 1.70605 8.45081L4.93965 10.9495C5.60107 8.5978 7.80579 6.90751 10.3045 6.90751Z" fill="#EA4335"/>
</g>
<defs>
<clipPath id="clip0_3910_90685">
<rect width="58.7927" height="28" fill="white" transform="translate(0.603516)"/>
</clipPath>
</defs>
</svg>
