<svg width="76" height="25" viewBox="0 0 76 25" fill="none" xmlns="http://www.w3.org/2000/svg">
<g clip-path="url(#clip0_2192_81206)">
<path d="M19.9128 6.33383C20.2164 4.3943 19.9112 3.07502 18.8627 1.88046C17.7075 0.564465 15.6203 0 12.9522 0H5.20394C4.65917 0 4.19315 0.397095 4.10947 0.935306L0.881844 21.3955C0.81785 21.7992 1.12962 22.1635 1.5382 22.1635H6.32138L5.99157 24.2572C5.93578 24.61 6.20816 24.93 6.56588 24.93H10.5975C11.075 24.93 11.4803 24.5821 11.5558 24.1112L11.5952 23.9061L12.3549 19.0901L12.4042 18.8243C12.478 18.3533 12.8849 18.0055 13.3624 18.0055H13.9663C17.8716 18.0055 20.9302 16.4187 21.8245 11.8292C22.1986 9.91096 22.005 8.3111 21.0172 7.18545C20.7185 6.84578 20.346 6.56355 19.9128 6.33383Z" fill="#009CDE"/>
<path d="M19.9129 6.33382C20.2164 4.3943 19.9112 3.07502 18.8627 1.88046C17.7075 0.564465 15.6203 0 12.9522 0H5.20394C4.65917 0 4.19315 0.397095 4.10947 0.935306L0.881844 21.3955C0.81785 21.7992 1.12962 22.1635 1.5382 22.1635H6.32138L7.52251 14.5448L7.48477 14.7844C7.5701 14.2462 8.02955 13.8491 8.57596 13.8491H10.8486C15.3134 13.8491 18.8102 12.0359 19.8308 6.78835C19.8603 6.63247 19.8866 6.48314 19.9096 6.33382" fill="#012169"/>
<path d="M8.81389 6.36008C8.86476 6.03518 9.07315 5.771 9.35374 5.63645C9.48173 5.57573 9.62285 5.54128 9.77217 5.54128H15.8451C16.5638 5.54128 17.2349 5.58886 17.8486 5.68731C18.0242 5.71521 18.1948 5.74803 18.3606 5.78413C18.5263 5.82023 18.6871 5.86125 18.843 5.90719C18.9201 5.93017 18.9972 5.95314 19.0727 5.97939C19.3746 6.07949 19.6536 6.19763 19.9129 6.33382C20.2164 4.3943 19.9112 3.07502 18.8627 1.88046C17.7075 0.564465 15.6203 0 12.9522 0H5.20394C4.65917 0 4.19315 0.397095 4.10947 0.935306L0.881844 21.3955C0.81785 21.7992 1.12962 22.1635 1.5382 22.1635H6.32138L7.52251 14.5448L8.81389 6.36008Z" fill="#003087"/>
<path d="M53.1807 12.812C53.2118 12.6151 53.3808 12.4707 53.5794 12.4707H57.3173C60.4006 12.4707 62.56 14.8943 62.0759 18.0071C61.5771 21.1215 58.6399 23.5434 55.5698 23.5434H51.7629C51.6185 23.5434 51.507 23.4138 51.5299 23.2711L53.1807 12.8104V12.812ZM54.7477 21.1067H55.3942C57.1122 21.1067 58.7285 20.1665 59.0796 18.0071C59.3881 16.0249 58.2576 14.9075 56.4066 14.9075H55.9324C55.8159 14.9075 55.7175 14.9911 55.6994 15.106L54.7477 21.1051V21.1067Z" fill="#003087"/>
<path d="M48.3401 15.2504L48.1005 16.76H51.0705C51.2149 16.76 51.3265 16.8897 51.3035 17.0324L51.018 18.8571C50.9868 19.054 50.8178 19.1984 50.6192 19.1984H48.0627C47.8642 19.1984 47.6952 19.3428 47.664 19.538L47.4097 21.1084H50.5552C50.6996 21.1084 50.8112 21.238 50.7883 21.3808L50.5027 23.2054C50.4716 23.4023 50.3026 23.5467 50.104 23.5467H44.4249C44.2805 23.5467 44.1689 23.4171 44.1919 23.2743L45.8426 12.8137C45.8738 12.6168 46.0428 12.4724 46.2414 12.4724H51.9205C52.0649 12.4724 52.1764 12.602 52.1535 12.7448L51.868 14.5694C51.8368 14.7663 51.6678 14.9107 51.4692 14.9107H48.7371C48.5386 14.9107 48.3696 15.0551 48.3384 15.252L48.3401 15.2504Z" fill="#003087"/>
<path d="M64.5881 23.5451H62.3303C62.1859 23.5451 62.0743 23.4155 62.0972 23.2727L63.748 12.812C63.7792 12.6151 63.9482 12.4707 64.1467 12.4707H66.4046C66.549 12.4707 66.6606 12.6004 66.6376 12.7431L64.9869 23.2038C64.9557 23.4007 64.7867 23.5451 64.5881 23.5451Z" fill="#003087"/>
<path d="M43.4059 23.5451H40.4474C40.321 23.5451 40.2062 23.4729 40.152 23.3597L38.1994 19.287H38.1698L37.5381 23.2711C37.5135 23.4302 37.3756 23.5467 37.2148 23.5467H34.8913C34.7469 23.5467 34.6354 23.4171 34.6583 23.2743L36.3189 12.7497C36.3435 12.5905 36.4814 12.474 36.6422 12.474H40.6656C42.8546 12.474 44.351 13.516 43.9851 15.8822C43.7357 17.4098 42.6773 18.7307 41.0627 19.0097L43.6061 23.189C43.7013 23.3465 43.588 23.5467 43.4043 23.5467L43.4059 23.5451ZM38.4652 17.4361H38.7441C39.6844 17.4361 40.7657 17.2589 40.961 16.0561C41.1579 14.8517 40.5311 14.6794 39.5268 14.6761H39.1199C38.9968 14.6761 38.8918 14.7647 38.8738 14.8861L38.4668 17.4361H38.4652Z" fill="#003087"/>
<path d="M70.6939 23.5451H68.436C68.2916 23.5451 68.18 23.4155 68.203 23.2727L69.5255 14.9091H67.4219C67.2775 14.9091 67.1659 14.7795 67.1889 14.6367L67.4744 12.812C67.5056 12.6151 67.6746 12.4707 67.8732 12.4707H74.888C75.0324 12.4707 75.1439 12.6004 75.121 12.7431L74.8354 14.5678C74.8043 14.7647 74.6353 14.9091 74.4367 14.9091H72.4037L71.0926 23.2038C71.0614 23.4007 70.8924 23.5451 70.6939 23.5451Z" fill="#003087"/>
<path d="M34.8076 15.618C34.7748 15.8231 34.5238 15.8969 34.3777 15.7476C33.8838 15.2422 33.1602 14.9747 32.3824 14.9747C30.6217 14.9747 29.227 16.3252 28.9497 18.0416C28.6855 19.7875 29.6832 21.0493 31.4734 21.0493C32.2118 21.0493 32.9945 20.7687 33.6443 20.2994C33.8231 20.1698 34.0709 20.3257 34.0348 20.5439L33.6246 23.0774C33.6 23.2284 33.4917 23.3515 33.344 23.3941C32.4677 23.6518 31.795 23.8372 30.9729 23.8372C26.1996 23.8372 25.4365 19.7596 25.6827 18.0268C26.3719 13.1665 30.3165 12.0523 32.7336 12.1869C33.513 12.2295 34.2104 12.3329 34.8946 12.5905C35.1161 12.6742 35.2474 12.9007 35.2097 13.1337L34.8076 15.6163V15.618Z" fill="#003087"/>
<path d="M49.1457 1.38491H46.6516C46.4809 1.38491 46.3365 1.50962 46.3086 1.67699L45.2995 8.06989C45.2798 8.19623 45.3766 8.30946 45.5046 8.30946H46.7845C46.9043 8.30946 47.006 8.22249 47.0241 8.10434L47.3096 6.29116C47.3358 6.12215 47.4819 5.99909 47.6525 5.99909H48.4418C50.0843 5.99909 51.0327 5.2049 51.2805 3.62965C51.3921 2.94047 51.2854 2.39898 50.9622 2.01993C50.6078 1.60315 49.9793 1.38327 49.1441 1.38327L49.1457 1.38491ZM49.4329 3.71989C49.2967 4.61418 48.6124 4.61418 47.9512 4.61418H47.5754L47.8396 2.94375C47.856 2.84202 47.943 2.76818 48.0447 2.76818H48.217C48.6666 2.76818 49.0916 2.76818 49.3115 3.02416C49.4427 3.1784 49.4821 3.40484 49.4329 3.71989Z" fill="#009CDE"/>
<path d="M31.3618 1.3847H28.8677C28.697 1.3847 28.5526 1.50941 28.5247 1.67678L27.5172 8.06968C27.4975 8.19603 27.5943 8.30925 27.7223 8.30925H28.9136C29.0842 8.30925 29.2286 8.18454 29.2565 8.01717L29.5289 6.2926C29.5552 6.12359 29.7012 6.00052 29.8719 6.00052H30.6611C32.3037 6.00052 33.2521 5.20633 33.4999 3.63108C33.6115 2.94191 33.5048 2.40041 33.1815 2.02137C32.8271 1.60458 32.1986 1.3847 31.3634 1.3847H31.3618ZM31.649 3.71969C31.5128 4.61397 30.8285 4.61397 30.1672 4.61397H29.7915L30.0557 2.94355C30.0721 2.84181 30.159 2.76797 30.2608 2.76797H30.4331C30.8827 2.76797 31.3076 2.76797 31.5275 3.02395C31.6588 3.17819 31.6982 3.40464 31.649 3.71969Z" fill="#003087"/>
<path d="M38.8147 3.69199H37.6201C37.5184 3.69199 37.4314 3.76583 37.415 3.86756L37.3625 4.20066L37.2788 4.07924C37.0196 3.70347 36.4436 3.57877 35.8677 3.57877C34.5484 3.57877 33.4211 4.57807 33.2029 5.98103C33.088 6.68004 33.2504 7.34953 33.6475 7.81554C34.0118 8.24381 34.532 8.42267 35.1506 8.42267C36.2139 8.42267 36.803 7.74006 36.803 7.74006L36.7505 8.07152C36.7308 8.19786 36.8276 8.31273 36.9556 8.31273H38.0304C38.201 8.31273 38.3454 8.18802 38.3733 8.02065L39.0182 3.9332C39.0379 3.80685 38.941 3.69363 38.8131 3.69363L38.8147 3.69199ZM37.1508 6.01548C37.036 6.69809 36.4945 7.1559 35.8037 7.1559C35.4574 7.1559 35.1801 7.04432 35.0013 6.83429C34.8241 6.62589 34.7584 6.32725 34.8142 5.99579C34.9225 5.31975 35.4722 4.84717 36.1515 4.84717C36.4912 4.84717 36.7652 4.96039 36.9474 5.17207C37.1295 5.38702 37.2017 5.68567 37.1492 6.01712L37.1508 6.01548Z" fill="#003087"/>
<path d="M56.6003 3.69199H55.4057C55.304 3.69199 55.217 3.76583 55.2006 3.86756L55.1481 4.20066L55.0644 4.07924C54.8051 3.70347 54.2292 3.57877 53.6532 3.57877C52.334 3.57877 51.2067 4.57807 50.9884 5.98103C50.8736 6.68004 51.036 7.34953 51.4331 7.81554C51.7974 8.24381 52.3175 8.42267 52.9362 8.42267C53.9995 8.42267 54.5885 7.74006 54.5885 7.74006L54.536 8.07152C54.5163 8.19786 54.6132 8.31273 54.7411 8.31273H55.8159C55.9866 8.31273 56.131 8.18802 56.1589 8.02065L56.8037 3.9332C56.8234 3.80685 56.7266 3.69363 56.5986 3.69363L56.6003 3.69199ZM54.9364 6.01548C54.8215 6.69809 54.2801 7.1559 53.5892 7.1559C53.243 7.1559 52.9657 7.04432 52.7868 6.83429C52.6096 6.62589 52.544 6.32725 52.5998 5.99579C52.7081 5.31975 53.2578 4.84717 53.9371 4.84717C54.2768 4.84717 54.5508 4.96039 54.7329 5.17207C54.9151 5.38702 54.9873 5.68567 54.9348 6.01712L54.9364 6.01548Z" fill="#009CDE"/>
<path d="M45.1731 3.69199H43.9737C43.8588 3.69199 43.7521 3.74942 43.6865 3.84459L42.0308 6.28295L41.3285 3.93976C41.2842 3.79372 41.1497 3.69199 40.9971 3.69199H39.8173C39.6745 3.69199 39.5744 3.83146 39.6204 3.96766L40.9413 7.84671L39.6991 9.60082C39.6023 9.73866 39.6991 9.929 39.8682 9.929H41.0676C41.1809 9.929 41.2875 9.87321 41.3532 9.77968L45.3438 4.02016C45.439 3.88233 45.3405 3.69363 45.1731 3.69363V3.69199Z" fill="#003087"/>
<path d="M58.0065 1.5605L56.9826 8.07154C56.9629 8.19789 57.0597 8.31111 57.1877 8.31111H58.2166C58.3872 8.31111 58.5316 8.1864 58.5595 8.01903L59.5686 1.62614C59.5883 1.49979 59.4915 1.38657 59.3635 1.38657H58.2116C58.1099 1.38657 58.0229 1.46041 58.0065 1.56214V1.5605Z" fill="#009CDE"/>
</g>
<defs>
<clipPath id="clip0_2192_81206">
<rect width="74.2518" height="24.93" fill="white" transform="translate(0.874115)"/>
</clipPath>
</defs>
</svg>
