<svg xmlns="http://www.w3.org/2000/svg" fill="none" viewBox="0 0 24 24" width="24" height="24"><g clip-path="url(#a)"><path fill="#343C47" fill-rule="evenodd" d="M10 6c0 .59-.13 1.14-.36 1.64L22 20v1h-3l-7-7-2.36 2.36c.23.5.36 1.05.36 1.64 0 2.21-1.79 4-4 4s-4-1.79-4-4 1.79-4 4-4c.59 0 1.14.13 1.64.36L10 12 7.64 9.64c-.5.23-1.05.36-1.64.36-2.21 0-4-1.79-4-4s1.79-4 4-4 4 1.79 4 4ZM4 6a2 2 0 1 0 3.999.001A2 2 0 0 0 4 6Zm0 12a2 2 0 1 0 3.999.001A2 2 0 0 0 4 18Zm7.5-6c0 .28.22.5.5.5s.5-.22.5-.5-.22-.5-.5-.5-.5.22-.5.5ZM13 9l6-6h3v1l-7 7-2-2Z" clip-rule="evenodd"/></g><defs><clipPath id="a"><path fill="#fff" d="M0 0h24v24H0z"/></clipPath></defs></svg>