<svg width="46" height="47" viewBox="0 0 46 47" fill="none" xmlns="http://www.w3.org/2000/svg">
<path d="M0 23.8594C0 36.5619 10.2975 46.8594 23 46.8594C35.7025 46.8594 46 36.5619 46 23.8594C46 11.1568 35.7025 0.859375 23 0.859375C10.2975 0.859375 0 11.1568 0 23.8594Z" fill="#FF0000"/>
<path d="M33.925 18.2533C33.6375 17.2471 32.9188 16.5283 31.9125 16.2408C30.1875 15.8096 22.8562 15.8096 22.8562 15.8096C22.8562 15.8096 15.6688 15.8096 13.8 16.2408C12.7938 16.5283 12.075 17.2471 11.7875 18.2533C11.5 20.1221 11.5 23.8596 11.5 23.8596C11.5 23.8596 11.5 27.5971 11.9313 29.4658C12.2188 30.4721 12.9375 31.1908 13.9437 31.4783C15.6687 31.9096 23 31.9096 23 31.9096C23 31.9096 30.1875 31.9096 32.0562 31.4783C33.0625 31.1908 33.7813 30.4721 34.0688 29.4658C34.5 27.5971 34.5 23.8596 34.5 23.8596C34.5 23.8596 34.5 20.1221 33.925 18.2533ZM20.7 27.3096V20.4096L26.7375 23.8596L20.7 27.3096Z" fill="white"/>
</svg>
